# xmcd
#
# Track frame offsets: 
#        150
#        16185
#        34013
#        47376
#        66825
#        82487
#        100573
#        115280
#        144272
#        159758
#        177237
#        197157
#        223052
#        238076
#        265860
#
# Disc length: 3784 seconds
#
# Revision: 4
# Processed by: cddbd v1.5.1PL2 Copyright (c) Steve Scherf et al.
# Submitted via: ExactAudioCopy v0.95a5
#
DISCID=c70ec60f
DTITLE=Various Artist - Greatest Hits Of The 70s Volume 2
DYEAR=1996
DGENRE=Rock
TTITLE0=Aerosmith - Walk This Way
TTITLE1=Billy Joel - Only The Good Die Young
TTITLE2=Brownsville Station - Smokin' In the Boys Room
TTITLE3=Crosby, Stills, Nash and Young - Long Time Gone
TTITLE4=Doobie Brothers - Listen To The Music
TTITLE5=Eddie Money - Two Tickets To Paradise
TTITLE6=Fleetwood Mac - Don't Stop
TTITLE7=Golden Earring - Radar Love
TTITLE8=Jimi Hendrix - Foxy Lady
TTITLE9=Journey - Lovin', Touchin', Squeezin'
TTITLE10=Led Zeppelin - Ramble On
TTITLE11=Pink Floyd - Another Brick In The Wall
TTITLE12=Santana - Black Magic Woman
TTITLE13=Styx - Come Sail Away
TTITLE14=Toto - Hold The Line
EXTD=
EXTT0=
EXTT1=
EXTT2=
EXTT3=
EXTT4=
EXTT5=
EXTT6=
EXTT7=
EXTT8=
EXTT9=
EXTT10=
EXTT11=
EXTT12=
EXTT13=
EXTT14=
PLAYORDER=
